<?xml version="1.0" standalone="no"?>
<!DOCTYPE svg PUBLIC "-//W3C//DTD SVG 20010904//EN"
 "http://www.w3.org/TR/2001/REC-SVG-20010904/DTD/svg10.dtd">
<svg version="1.0" xmlns="http://www.w3.org/2000/svg"
 width="512.000000pt" height="512.000000pt" viewBox="0 0 512.000000 512.000000"
 preserveAspectRatio="xMidYMid meet">
<metadata>
Created by potrace 1.14, written by Peter Selinger 2001-2017
</metadata>
<g transform="translate(0.000000,512.000000) scale(0.100000,-0.100000)"
fill="#000000" stroke="none">
<path d="M2197 4694 c-1 -1 -42 -4 -92 -8 -134 -9 -252 -30 -380 -69 -38 -11
-72 -21 -75 -22 -8 -3 -43 -16 -75 -30 -16 -6 -46 -18 -65 -25 -34 -14 -51
-22 -175 -90 -52 -29 -128 -77 -160 -102 -5 -4 -37 -29 -70 -55 -86 -67 -231
-215 -301 -308 -212 -283 -316 -541 -369 -920 -7 -47 -7 -316 0 -363 2 -18 7
-52 10 -75 61 -446 304 -874 658 -1160 187 -150 480 -298 677 -342 8 -2 45
-10 83 -19 37 -9 93 -18 124 -22 31 -3 66 -8 77 -10 28 -6 343 -7 353 -1 4 3
39 8 78 12 38 4 72 8 76 10 3 2 21 7 40 10 51 8 207 53 269 77 136 52 405 201
457 254 8 8 18 14 22 14 5 0 188 -180 409 -400 278 -278 412 -405 439 -416 46
-20 120 -20 167 0 118 49 165 210 92 315 -14 20 -171 181 -348 358 -178 177
-351 351 -386 386 l-63 64 73 109 c153 228 260 502 292 749 4 28 9 68 12 90 6
47 6 308 0 345 -2 14 -7 52 -11 85 -11 96 -51 256 -91 362 -157 421 -437 750
-824 968 -160 90 -395 174 -566 201 -20 3 -45 7 -56 9 -41 8 -295 24 -301 19z
m218 -438 c28 -4 57 -9 65 -11 8 -2 26 -6 40 -9 14 -3 36 -8 50 -11 14 -3 35
-8 48 -11 52 -11 189 -66 270 -109 281 -150 512 -402 633 -695 17 -41 32 -79
34 -85 1 -5 5 -17 8 -25 7 -19 38 -147 43 -180 15 -92 21 -180 18 -275 -2
-100 -5 -127 -19 -205 -3 -14 -7 -39 -10 -57 -10 -60 -73 -239 -110 -314 -91
-181 -229 -354 -370 -465 -21 -16 -50 -39 -64 -50 -36 -30 -219 -134 -234
-134 -7 0 -17 -4 -22 -9 -34 -30 -266 -95 -390 -108 -434 -46 -840 95 -1144
398 -205 205 -352 490 -387 752 -3 23 -9 60 -13 82 -4 22 -6 92 -5 155 1 138
13 235 39 330 1 3 5 19 9 35 14 52 77 208 109 270 81 154 216 319 351 430 194
157 464 273 701 300 33 4 61 7 62 9 5 4 242 -2 288 -8z"/>
</g>
</svg>
